HIERARCHY
ROOT Hips
{
	OFFSET 0.00000 0.00000 0.00000
	CHANNELS 6 Xposition Yposition Zposition Zrotation Yrotation Xrotation 
	JOINT LHipJoint
	{
		OFFSET 0 0 0
		CHANNELS 3 Zrotation Yrotation Xrotation
		JOINT LeftUpLeg
		{
			OFFSET 1.41261 -1.82971 0.84908
			CHANNELS 3 Zrotation Yrotation Xrotation
			JOINT LeftLeg
			{
				OFFSET 2.52554 -6.93888 0.00000
				CHANNELS 3 Zrotation Yrotation Xrotation
				JOINT LeftFoot
				{
					OFFSET 2.56654 -7.05152 0.00000
					CHANNELS 3 Zrotation Yrotation Xrotation
					JOINT LeftToeBase
					{
						OFFSET 0.21698 -0.59616 1.85369
						CHANNELS 3 Zrotation Yrotation Xrotation
						End Site
						{
							OFFSET 0.00000 -0.00000 0.97832
						}
					}
				}
			}
		}
	}
	JOINT RHipJoint
	{
		OFFSET 0 0 0
		CHANNELS 3 Zrotation Yrotation Xrotation
		JOINT RightUpLeg
		{
			OFFSET -1.12808 -1.82971 0.84907
			CHANNELS 3 Zrotation Yrotation Xrotation
			JOINT RightLeg
			{
				OFFSET -2.53425 -6.96280 0.00000
				CHANNELS 3 Zrotation Yrotation Xrotation
				JOINT RightFoot
				{
					OFFSET -2.58413 -7.09983 0.00000
					CHANNELS 3 Zrotation Yrotation Xrotation
					JOINT RightToeBase
					{
						OFFSET -0.26437 -0.72636 1.92241
						CHANNELS 3 Zrotation Yrotation Xrotation
						End Site
						{
							OFFSET -0.00000 -0.00000 1.02667
						}
					}
				}
			}
		}
	}
	JOINT LowerBack
	{
		OFFSET 0 0 0
		CHANNELS 3 Zrotation Yrotation Xrotation
		JOINT Spine
		{
			OFFSET -0.02096 2.02288 -0.14752
			CHANNELS 3 Zrotation Yrotation Xrotation
			JOINT Spine1
			{
				OFFSET 0.03477 2.03136 -0.02358
				CHANNELS 3 Zrotation Yrotation Xrotation
				JOINT Neck
				{
					OFFSET 0 0 0
					CHANNELS 3 Zrotation Yrotation Xrotation
					JOINT Neck1
					{
						OFFSET 0.00174 1.74359 0.19336
						CHANNELS 3 Zrotation Yrotation Xrotation
						JOINT Head
						{
							OFFSET -0.03054 1.76140 -0.17751
							CHANNELS 3 Zrotation Yrotation Xrotation
							End Site
							{
								OFFSET -0.00863 1.77239 -0.08120
							}
						}
					}
				}
				JOINT LeftShoulder
				{
					OFFSET 0 0 0
					CHANNELS 3 Zrotation Yrotation Xrotation
					JOINT LeftArm
					{
						OFFSET 3.68685 1.32687 -0.67367
						CHANNELS 3 Zrotation Yrotation Xrotation
						JOINT LeftForeArm
						{
							OFFSET 4.76468 -0.00000 -0.00000
							CHANNELS 3 Zrotation Yrotation Xrotation
							JOINT LeftHand
							{
								OFFSET 3.52712 -0.00000 -0.00000
								CHANNELS 3 Zrotation Yrotation Xrotation
								JOINT LeftFingerBase
								{
									OFFSET 0 0 0
									CHANNELS 3 Zrotation Yrotation Xrotation
									JOINT LeftHandIndex1
									{
										OFFSET 0.85956 -0.00000 -0.00000
										CHANNELS 3 Zrotation Yrotation Xrotation
										End Site
										{
											OFFSET 0.69300 -0.00000 -0.00000
										}
									}
								}
								JOINT LThumb
								{
									OFFSET 0 0 0
									CHANNELS 3 Zrotation Yrotation Xrotation
									End Site
									{
										OFFSET 0.70358 -0.00000 0.70358
									}
								}
							}
						}
					}
				}
				JOINT RightShoulder
				{
					OFFSET 0 0 0
					CHANNELS 3 Zrotation Yrotation Xrotation
					JOINT RightArm
					{
						OFFSET -3.31304 1.28268 -0.97357
						CHANNELS 3 Zrotation Yrotation Xrotation
						JOINT RightForeArm
						{
							OFFSET -4.90577 -0.00000 -0.00000
							CHANNELS 3 Zrotation Yrotation Xrotation
							JOINT RightHand
							{
								OFFSET -3.42692 -0.00000 0.00000
								CHANNELS 3 Zrotation Yrotation Xrotation
								JOINT RightFingerBase
								{
									OFFSET 0 0 0
									CHANNELS 3 Zrotation Yrotation Xrotation
									JOINT RightHandIndex1
									{
										OFFSET -0.74096 -0.00000 -0.00000
										CHANNELS 3 Zrotation Yrotation Xrotation
										End Site
										{
											OFFSET -0.59738 -0.00000 -0.00000
										}
									}
								}
								JOINT RThumb
								{
									OFFSET 0 0 0
									CHANNELS 3 Zrotation Yrotation Xrotation
									End Site
									{
										OFFSET -0.60650 -0.00000 0.60650
									}
								}
							}
						}
					}
				}
			}
		}
	}
}
MOTION
Frames: 11
Frame Time: .0083333
-0.015 18.0744 0.4053 0 0 0 0 0 0 -21 0 0 0 0 0 0 0 0 0 0 0 0 0 0 21 0 0 0 0 0 0 0 0 0 0 0 0 0 0 0 0 0 0 0 0 0 0 -16 0 0 21 0 0 11 0 0 0 -8 0 0 0 0 0 0 0 0 0 0 0 0 0 0 0 0 0 0 0 0 8 0 0 0 0 0 0 0 0 0 0 0 0 0 0 0 0 0
-0.0150 18.0744 0.4053 -0.8673 -2.7439 -1.5667 0.0000 0.0000 0.0000 -17.4509 2.8902 5.0351 0.2193 3.0146 8.3193 0.4843 -2.5412 -12.5175 1.7964 -8.4285 -24.0232 0.0000 0.0000 0.0000 19.9179 -1.4361 0.5750 -0.6657 -5.2179 14.5310 -0.5467 -2.6214 -15.1660 -0.5569 -4.7804 13.2832 -4.5660 -1.6167 9.4373 2.0678 -2.5688 -1.8242 5.1524 -1.0265 -6.9373 -11.4597 -10.9038 -6.1097 7.3909 -14.4716 11.0764 2.9931 -7.1426 5.7160 0.0000 -0.0000 0.0000 -94.6207 10.4698 5.6749 21.7777 -32.7249 -6.4653 -0.0000 0.0000 -0.0664 6.2570 -8.9305 -0.9751 -7.1250 0.0000 -0.0000 -14.7728 21.1072 8.7518 0.0000 -0.0000 0.0000 87.9289 -0.1918 9.4030 -11.2546 18.6774 -1.8566 0.0000 0.0000 5.7624 -5.8220 -38.5657 3.6371 7.1250 -0.0000 -0.0000 37.1998 -64.9477 -19.1561
-0.0178 18.0724 0.4070 -1.1698 -2.7494 -1.5853 0.0000 0.0000 0.0000 -17.0292 2.9725 5.0126 0.2227 3.0377 8.3838 0.4785 -2.5742 -12.4352 1.7403 -8.3028 -23.6376 0.0000 0.0000 0.0000 20.3172 -1.3808 0.6109 -0.6705 -5.2365 14.5844 -0.5497 -2.7440 -15.2725 -0.5291 -4.6614 12.9452 -4.2637 -1.6030 9.3824 2.1063 -2.5077 -1.6952 5.0056 -1.0160 -6.7850 -11.5273 -10.8701 -5.7131 7.6893 -14.4747 10.6396 3.1251 -7.1411 5.5408 -0.0000 -0.0000 0.0000 -94.7288 10.5081 6.0078 21.9376 -32.9064 -6.5519 -0.0000 0.0000 -0.0821 6.2555 -9.2293 -1.0072 -7.1250 0.0000 -0.0000 -14.7482 20.8167 8.8368 -0.0000 -0.0000 0.0000 88.0596 -0.1059 9.6828 -11.2290 18.6383 -1.8484 0.0000 0.0000 6.1890 -5.6637 -38.0331 3.4966 7.1250 -0.0000 -0.0000 36.6359 -64.4874 -18.4432
-0.0200 18.0703 0.4094 -1.4239 -2.7799 -1.5762 0.0000 0.0000 0.0000 -16.6851 2.9873 4.9848 0.2261 3.0610 8.4486 0.4773 -2.5787 -12.4191 1.7007 -8.2127 -23.3621 0.0000 0.0000 0.0000 20.6561 -1.2895 0.6164 -0.6756 -5.2557 14.6393 -0.5525 -2.7985 -15.3372 -0.5292 -4.6617 12.9463 -4.0658 -1.6188 9.2708 2.1759 -2.4954 -1.5634 4.9556 -1.0257 -6.5866 -11.6727 -10.8117 -5.3686 7.9801 -14.4329 10.2733 3.2660 -7.1202 5.3977 0.0000 -0.0000 0.0000 -94.9300 10.5478 6.2350 22.1668 -33.1650 -6.6769 -0.0000 0.0000 -0.1404 6.1721 -9.1249 -0.9825 -7.1250 0.0000 -0.0000 -14.8157 20.9203 8.8440 0.0000 -0.0000 0.0000 88.1437 -0.0669 10.2029 -11.2556 18.6789 -1.8569 0.0000 0.0000 6.8160 -5.6712 -37.5345 3.4623 7.1250 -0.0000 -0.0000 35.9733 -64.0962 -17.7437
-0.0222 18.0684 0.4100 -1.7097 -2.8064 -1.5351 0.0000 0.0000 0.0000 -16.3022 2.9809 4.9147 0.2305 3.0901 8.5296 0.4807 -2.5937 -12.4616 1.6901 -8.1883 -23.2875 0.0000 0.0000 0.0000 21.0492 -1.1352 0.6193 -0.6770 -5.2613 14.6553 -0.5489 -2.9249 -15.3654 -0.5543 -4.7691 13.2513 -3.8496 -1.6494 9.1402 2.2676 -2.5001 -1.4461 4.9204 -1.0432 -6.3911 -12.0396 -10.6928 -4.7340 8.5564 -14.3431 9.6978 3.5507 -7.0786 5.1744 -0.0000 0.0000 0.0000 -95.1480 10.6436 6.4698 22.4259 -33.4550 -6.8191 -0.0000 0.0000 -0.1623 6.0393 -8.9727 -0.9453 -7.1250 0.0000 -0.0000 -14.9222 21.0714 8.8591 -0.0000 0.0000 0.0000 88.2059 -0.0263 10.5284 -11.3240 18.7832 -1.8789 0.0000 0.0000 6.5711 -5.8633 -37.4524 3.5733 7.1250 -0.0000 -0.0000 35.6734 -64.0833 -17.5664
-0.0243 18.0673 0.4084 -1.9896 -2.8264 -1.4638 0.0000 0.0000 0.0000 -15.9233 2.9854 4.7806 0.2335 3.1101 8.5853 0.4756 -2.5888 -12.3940 1.7060 -8.2248 -23.3991 0.0000 0.0000 0.0000 21.4390 -0.9632 0.5656 -0.6816 -5.2786 14.7048 -0.5465 -3.0632 -15.4165 -0.5638 -4.8092 13.3652 -3.6045 -1.6611 9.0415 2.3427 -2.4796 -1.3596 4.8502 -1.0468 -6.2515 -11.5984 -10.8535 -5.7819 7.5837 -14.4424 10.9771 3.0954 -7.1316 5.6522 0.0000 0.0000 0.0000 -95.3097 10.7438 6.6625 22.5972 -33.6453 -6.9138 -0.0000 -0.0000 0.0912 5.6656 -9.6632 -0.9540 -7.1250 0.0000 -0.0000 -15.1238 20.4108 9.2221 0.0000 0.0000 0.0000 88.2800 0.0448 10.4236 -11.3645 18.8448 -1.8920 0.0000 0.0000 5.7193 -5.9015 -37.4908 3.5999 7.1250 -0.0000 -0.0000 35.6841 -64.1242 -17.6059
-0.0277 18.0682 0.4046 -2.4129 -2.7876 -1.3356 0.0000 0.0000 0.0000 -15.3483 2.9985 4.5179 0.2379 3.1388 8.6655 0.4846 -2.7417 -12.4948 1.5452 -7.8464 -22.2487 0.0000 0.0000 0.0000 22.0037 -0.8102 0.3582 -0.6995 -5.3462 14.8986 -0.5503 -3.1986 -15.5438 -0.5447 -4.7286 13.1360 -3.1903 -1.6752 8.9262 2.4486 -2.4421 -1.2711 4.7137 -1.0471 -6.1076 -12.1786 -10.6983 -4.6039 8.6704 -14.3681 9.7230 3.6095 -7.0936 5.1820 -0.0000 0.0000 0.0000 -95.4329 10.7651 6.8989 22.7021 -33.7614 -6.9720 -0.0000 -0.0000 0.2358 5.3305 -10.9749 -1.0176 -7.1250 0.0000 -0.0000 -15.2477 19.1495 9.7517 -0.0000 0.0000 0.0000 88.3555 0.1730 10.2681 -11.3421 18.8107 -1.8847 0.0000 0.0000 5.3415 -5.7365 -37.2773 3.4818 7.1250 -0.0000 -0.0000 35.5779 -63.9096 -17.3707
-0.0283 18.0654 0.4063 -2.4326 -2.7723 -1.3043 0.0000 0.0000 0.0000 -15.3149 2.9906 4.4270 0.2436 3.1761 8.7694 0.4908 -2.8055 -12.5690 1.6085 -7.9980 -22.7079 0.0000 0.0000 0.0000 22.0340 -0.7760 0.2749 -0.7104 -5.3867 15.0149 -0.5517 -3.2391 -15.5848 -0.5433 -4.7223 13.1182 -3.1695 -1.6549 8.7822 2.4376 -2.4099 -1.1329 4.6744 -1.0409 -5.8841 -12.2977 -10.7175 -4.4686 8.8305 -14.4115 9.6138 3.6807 -7.1149 5.1511 -0.0000 -0.0000 0.0000 -95.5667 10.7744 7.1516 22.8312 -33.9037 -7.0439 -0.0000 -0.0000 0.1798 5.2594 -11.6007 -1.0605 -7.1250 0.0000 -0.0000 -15.2480 18.5458 9.9649 -0.0000 -0.0000 0.0000 88.4520 0.2507 10.5645 -11.3327 18.7965 -1.8817 0.0000 0.0000 5.5179 -5.7327 -37.1530 3.4696 7.1250 -0.0000 -0.0000 35.4243 -63.8094 -17.2041
-0.0296 18.0615 0.4087 -2.3356 -2.7267 -1.3034 0.0000 0.0000 0.0000 -15.4428 2.8666 4.3984 0.2551 3.2500 8.9754 0.4980 -2.7890 -12.6655 1.7691 -8.3676 -23.8364 0.0000 0.0000 0.0000 21.9251 -0.7478 0.2712 -0.7122 -5.3932 15.0336 -0.5502 -3.2808 -15.5921 -0.5604 -4.7951 13.3250 -3.3146 -1.6489 8.6771 2.4196 -2.4159 -1.0224 4.7297 -1.0467 -5.7022 -12.3417 -10.6829 -4.4550 8.8205 -14.3687 9.7362 3.6867 -7.0963 5.1846 0.0000 0.0000 0.0000 -95.7386 10.8144 7.2349 22.9122 -33.9927 -7.0891 -0.0000 -0.0000 0.2431 5.1879 -11.6513 -1.0505 -7.1250 0.0000 -0.0000 -15.2930 18.4992 10.0130 0.0000 0.0000 0.0000 88.5397 0.1627 11.3218 -11.4127 18.9181 -1.9076 0.0000 0.0000 5.6515 -5.8882 -37.3543 3.5806 7.1250 -0.0000 -0.0000 35.5225 -64.0120 -17.4242
-0.0304 18.0580 0.4124 -2.2816 -2.6619 -1.3034 0.0000 0.0000 0.0000 -15.5321 2.7591 4.3678 0.2650 3.3115 9.1471 0.5070 -2.7669 -12.7858 1.8126 -8.4643 -24.1335 0.0000 0.0000 0.0000 21.8568 -0.7666 0.2622 -0.7144 -5.4015 15.0574 -0.5556 -3.2981 -15.6688 -0.5648 -4.8134 13.3772 -3.3877 -1.6554 8.6184 2.4112 -2.4313 -0.9578 4.7592 -1.0563 -5.5966 -12.2720 -10.6472 -4.5276 8.5536 -14.3063 10.0761 3.5909 -7.0744 5.2704 -0.0000 0.0000 0.0000 -95.8744 10.9627 7.4043 22.9505 -34.0346 -7.1106 -0.0000 -0.0000 0.1651 5.1843 -11.6471 -1.0494 -7.1250 0.0000 -0.0000 -15.2958 18.5035 10.0134 -0.0000 0.0000 0.0000 88.6079 0.0127 11.8680 -11.4913 19.0373 -1.9331 0.0000 0.0000 5.4668 -6.1061 -37.5355 3.7290 7.1250 -0.0000 -0.0000 35.5344 -64.2155 -17.5976
-0.0308 18.0560 0.4173 -2.3431 -2.5692 -1.2968 0.0000 0.0000 0.0000 -15.4957 2.6489 4.3274 0.2738 3.3661 9.2996 0.5179 -2.7455 -12.9305 1.7846 -8.4023 -23.9429 0.0000 0.0000 0.0000 21.9215 -0.8403 0.2541 -0.7149 -5.4032 15.0623 -0.5545 -3.3282 -15.6728 -0.5518 -4.7585 13.2211 -3.2950 -1.6636 8.5968 2.4167 -2.4315 -0.9335 4.7105 -1.0607 -5.5621 -11.7844 -10.8327 -5.5910 7.3464 -14.4153 11.5395 3.0510 -7.1442 5.7903 -0.0000 0.0000 0.0000 -95.9553 11.2183 7.7004 22.9726 -34.0589 -7.1230 -0.0000 0.0000 -0.0488 5.2800 -11.6226 -1.0666 -7.1250 0.0000 -0.0000 -15.2322 18.5238 9.9615 -0.0000 0.0000 0.0000 88.6798 -0.0620 11.5263 -11.3522 18.8260 -1.8880 0.0000 0.0000 5.5149 -6.3535 -36.8764 3.8227 7.1250 -0.0000 -0.0000 34.4486 -63.7542 -16.6285
